{"title":"Love Punjab 2016 pDVDRip Punjabi Movies xviD~Hindify.mp4","uid":13861435,"size":712332271,"categoryP":"video","categoryS":"movies","magnet":"?xt=urn:btih:4e6568c146ac78d6b96f6ce0c4ebdfc7c5ec9cf2&amp;dn=Love+Punjab+2016+pDVDRip+Punjabi+Movies+xviD%7EHindify.mp4&amp;tr=udp%3A%2F%2Ftracker.leechers-paradise.org%3A6969&amp;tr=udp%3A%2F%2Fzer0day.ch%3A1337&amp;tr=udp%3A%2F%2Fopen.demonii.com%3A1337&amp;tr=udp%3A%2F%2Ftracker.coppersurfer.tk%3A6969&amp;tr=udp%3A%2F%2Fexodus.desync.com%3A6969","seeders":1,"leechers":0,"uploader":null,"files":1,"time":1458037229,"description":"HINDIFY.CO PRESENTS:\r\n\r\nLove Punjab 2016 pDVDRip Punjabi Movies xviD~Hindify.mp4\r\n\r\nSCREENS:\r\n \nhttp://ultraimg.com/images/vlcsnap-000125ff3e.png \nhttp://ultraimg.com/images/vlcsnap-0001188ebc.png \nhttp://ultraimg.com/images/vlcsnap-00010a8ffa.png\r\n\r\n\r\nFormat : MPEG-4\r\nFormat profile : Base Media / Version 2\r\nCodec ID : mp42 (isom/iso2/avc1/mp41)\r\nFile size : 679 MiB\r\nDuration : 2h 10mn\r\nOverall bit rate mode : Variable\r\nOverall bit rate : 728 Kbps\r\nEncoded date : UTC 2016-03-14 05:22:13\r\nTagged date : UTC 2016-03-14 05:22:13\r\nWriting application : HandBrake 0.10.5 2016021100\r\n\r\nVideo\r\nID : 1\r\nFormat : AVC\r\nFormat/Info : Advanced Video Codec\r\nFormat profile :   \r\nFormat settings, CABAC : Yes\r\nFormat settings, ReFrames : 4 frames\r\nCodec ID : avc1\r\nCodec ID/Info : Advanced Video Coding\r\nDuration : 2h 10mn\r\nBit rate : 664 Kbps\r\nWidth : 640 pixels\r\nHeight : 284 pixels\r\nDisplay aspect ratio : 2.25:1\r\nFrame rate mode : Constant\r\nFrame rate : 25.000 fps\r\nColor space : YUV\r\nChroma subsampling : 4:2:0\r\nBit depth : 8 bits\r\nScan type : Progressive\r\nBits/(Pixel*Frame) : 0.146\r\nStream size : 620 MiB (91%)\r\nWriting library : x264 core 142 r2491 24e4fed\r\nEncoding settings : cabac=1 / ref=3 / deblock=1:0:0 / analyse=0x3:0x113 / me=hex / subme=7 / psy=1 / psy_rd=1.00:0.00 / mixed_ref=1 / me_range=16 / chroma_me=1 / trellis=1 / 8x8dct=1 / cqm=0 / deadzone=21,11 / fast_pskip=1 / chroma_qp_offset=-2 / threads=12 / lookahead_threads=2 / sliced_threads=0 / nr=0 / decimate=1 / interlaced=0 / bluray_compat=0 / constrained_intra=0 / bframes=3 / b_pyramid=2 / b_adapt=1 / b_bias=0 / direct=1 / weightb=1 / open_gop=0 / weightp=2 / keyint=250 / keyint_min=25 / scenecut=40 / intra_refresh=0 / rc_lookahead=40 / rc=abr / mbtree=1 / bitrate=664 / ratetol=1.0 / qcomp=0.60 / qpmin=0 / qpmax=69 / qpstep=4 / vbv_maxrate=17500 / vbv_bufsize=17500 / nal_hrd=none / filler=0 / ip_ratio=1.40 / aq=1:1.00\r\nEncoded date : UTC 2016-03-14 05:22:13\r\nTagged date : UTC 2016-03-14 05:22:13\r\nColor range : Limited\r\nColor primaries : BT.601 PAL\r\nTransfer characteristics : BT.709\r\nMatrix coefficients : BT.601\r\n\r\nAudio\r\nID : 2\r\nFormat : AAC\r\nFormat/Info : Advanced Audio Codec\r\nFormat profile : LC\r\nCodec ID : 40\r\nDuration : 2h 10mn\r\nBit rate mode : Variable\r\nBit rate : 56.2 Kbps\r\nChannel(s) : 2 channels\r\nChannel(s)_Original : 1 channel\r\nChannel positions : Front: C\r\nSampling rate : 44.1 KHz\r\nFrame rate : 43.066 fps (1024 spf)\r\nCompression mode : Lossy\r\nStream size : 52.4 MiB (8%)\r\nTitle : Mono / Mono\r\nDefault : Yes\r\nAlternate group : 1\r\nEncoded date : UTC 2016-03-14 05:22:13\r\nTagged date : UTC 2016-03-14 05:22:13","torrent":{"xt":"urn:btih:4e6568c146ac78d6b96f6ce0c4ebdfc7c5ec9cf2","amp;dn":"Love+Punjab+2016+pDVDRip+Punjabi+Movies+xviD%7EHindify.mp4","amp;tr":["udp%3A%2F%2Ftracker.leechers-paradise.org%3A6969","udp%3A%2F%2Fzer0day.ch%3A1337","udp%3A%2F%2Fopen.demonii.com%3A1337","udp%3A%2F%2Ftracker.coppersurfer.tk%3A6969","udp%3A%2F%2Fexodus.desync.com%3A6969"],"infoHash":"4e6568c146ac78d6b96f6ce0c4ebdfc7c5ec9cf2","infoHashBuffer":{"type":"Buffer","data":[78,101,104,193,70,172,120,214,185,111,108,224,196,235,223,199,197,236,156,242]},"announce":[],"urlList":[]}}